<?xml version="1.0" encoding="UTF-8"?>
<svg width="1200pt" height="1200pt" version="1.1" viewBox="0 0 1200 1200" xmlns="http://www.w3.org/2000/svg">
  <path d="m279.6 1050h661.2c7.1992 0 12-4.8008 12-12v-882c0-7.1992-4.8008-12-12-12h-661.2c-7.1992 0-12 4.8008-12 12v45.602h-20.398c-7.1992 0-12 4.8008-12 12 0 7.1992 4.8008 12 12 12h20.398v44.398h-20.398c-7.1992 0-12 4.8008-12 12s4.8008 12 12 12h20.398v44.398h-20.398c-7.1992 0-12 4.8008-12 12 0 7.1992 4.8008 12 12 12h20.398v45.602h-20.398c-7.1992 0-12 4.8008-12 12s4.8008 12 12 12h20.398v44.398h-20.398c-7.1992 0-12 4.8008-12 12 0 7.1992 4.8008 12 12 12h20.398v44.398h-20.398c-7.1992 0-12 4.8008-12 12s4.8008 12 12 12h20.398v44.398h-20.398c-7.1992 0-12 4.8008-12 12 0 7.1992 4.8008 12 12 12h20.398v46.805h-20.398c-7.1992 0-12 4.8008-12 12s4.8008 12 12 12h20.398v44.398h-20.398c-7.1992 0-12 4.8008-12 12 0 7.1992 4.8008 12 12 12h20.398v44.398h-20.398c-7.1992 0-12 4.8008-12 12s4.8008 12 12 12h20.398v44.398h-20.398c-7.1992 0-12 4.8008-12 12 0 7.1992 4.8008 12 12 12h20.398v46.805h-20.398c-7.1992 0-12 4.8008-12 12s4.8008 12 12 12h20.398v54c0 7.1992 4.7969 12 12 12zm12-66h20.398c7.1992 0 12-4.8008 12-12s-4.8008-12-12-12h-20.398v-44.398h20.398c7.1992 0 12-4.8008 12-12 0-7.1992-4.8008-12-12-12h-20.398v-44.398l20.398-0.003906c7.1992 0 12-4.8008 12-12s-4.8008-12-12-12h-20.398v-44.398h20.398c7.1992 0 12-4.8008 12-12s-4.8008-12-12-12h-20.398v-46.801h20.398c7.1992 0 12-4.8008 12-12s-4.8008-12-12-12h-20.398v-44.398h20.398c7.1992 0 12-4.8008 12-12 0-7.1992-4.8008-12-12-12h-20.398v-44.398l20.398-0.003906c7.1992 0 12-4.8008 12-12s-4.8008-12-12-12h-20.398v-44.398h20.398c7.1992 0 12-4.8008 12-12s-4.8008-12-12-12h-20.398v-46.801h20.398c7.1992 0 12-4.8008 12-12s-4.8008-12-12-12h-20.398v-44.398h20.398c7.1992 0 12-4.8008 12-12 0-7.1992-4.8008-12-12-12h-20.398v-44.398l20.398-0.003906c7.1992 0 12-4.8008 12-12s-4.8008-12-12-12h-20.398v-44.398h20.398c7.1992 0 12-4.8008 12-12s-4.8008-12-12-12h-20.398v-34.801h637.2v858h-637.2z"/>
  <path d="m830.4 784.8h-427.2c-7.1992 0-12 4.8008-12 12s4.8008 12 12 12h426c7.1992 0 12-4.8008 12-12s-4.8008-12-10.801-12z"/>
  <path d="m830.4 888h-427.2c-7.1992 0-12 4.8008-12 12s4.8008 12 12 12h426c7.1992 0 12-4.8008 12-12s-4.8008-12-10.801-12z"/>
  <path d="m423.6 590.4c8.3984 13.199 25.199 20.398 48 20.398 13.199 0 28.801-2.3984 45.602-6 9.6016-2.3984 19.199-4.8008 28.801-8.3984 13.199 58.801 37.199 102 70.801 102 33.602 0 56.398-43.199 70.801-102 27.602 9.6016 54 15.602 74.398 15.602 21.602 0 39.602-6 48-20.398 13.199-21.602 4.8008-52.801-27.602-91.199-8.3984-10.801-19.199-21.602-30-32.398 10.801-10.801 21.602-21.602 30-32.398 31.199-38.398 40.801-69.602 27.602-91.199-18-27.602-67.199-25.199-123.6-4.8008-13.199-57.602-37.199-99.602-69.602-99.602-32.398 0-56.398 42-69.602 99.602-9.6016-3.6016-20.398-7.1992-28.801-8.3984-48-12-80.398-7.1992-94.801 14.398-13.199 21.602-4.8008 52.801 27.602 91.199 8.3984 10.801 19.199 21.602 30 32.398-10.801 10.801-21.602 21.602-30 32.398-32.398 36-42 67.199-27.598 88.797zm340.8-76.797c27.602 33.602 31.199 55.199 25.199 63.602-8.3984 13.199-45.602 13.199-98.398-6 3.6016-19.199 6-39.602 7.1992-60 13.199-9.6016 25.199-19.199 36-28.801 12 10.797 21.602 21.598 30 31.199zm-63.598-61.203c6 4.8008 12 9.6016 16.801 14.398-6 4.8008-10.801 9.6016-16.801 14.398v-13.199-15.598zm61.199-105.6c14.398 0 24 3.6016 27.602 9.6016 6 8.3984 1.1992 30-25.199 63.602-8.3984 10.801-18 20.398-28.801 31.199-10.801-9.6016-24-19.199-36-28.801-1.1992-20.398-3.6016-40.801-7.1992-60 27.598-10.801 52.797-15.602 69.598-15.602zm-202.8 182.4c3.6016 2.3984 8.3984 4.8008 12 8.3984 7.1992 4.8008 13.199 8.3984 20.398 12-9.6016 4.8008-19.199 8.3984-27.602 13.199-2.3945-10.797-3.5977-21.598-4.7969-33.598zm57.602 144c-15.602 0-36-31.199-48-86.398 15.602-6 32.398-14.398 48-22.801 15.602 8.3984 32.398 15.602 48 22.801-12 55.199-32.402 86.398-48 86.398zm52.801-110.4c-8.3984-3.6016-18-8.3984-27.602-13.199 7.1992-3.6016 13.199-8.3984 20.398-12 3.6016-2.3984 8.3984-4.8008 12-8.3984-1.1992 11.996-3.5977 22.797-4.7969 33.598zm3.5977-159.6c-3.6016-2.3984-7.1992-4.8008-12-7.1992-7.1992-4.8008-13.199-8.3984-20.398-12 9.6016-4.8008 18-8.3984 27.602-13.199 2.3984 9.5977 3.5977 21.598 4.7969 32.398zm-56.398-140.4c15.602 0 34.801 30 48 85.199-15.602 6-31.199 14.398-48 22.801-16.801-8.3984-32.398-16.801-48-22.801 13.199-55.199 32.398-85.199 48-85.199zm-52.801 108c8.3984 3.6016 18 8.3984 27.602 13.199-7.1992 3.6016-13.199 8.3984-20.398 12-3.6016 2.3984-7.1992 4.8008-12 7.1992 1.1953-10.801 3.5977-21.598 4.7969-32.398zm-6 63.598c8.3984-6 18-12 26.398-18 10.801-7.1992 21.602-13.199 32.398-19.199 10.801 6 21.602 12 32.398 19.199 9.6016 6 18 12 26.398 18 0 10.801 1.1992 21.602 1.1992 33.602 0 10.801 0 21.602-1.1992 31.199-8.3984 6-18 12-26.398 18-10.801 7.1992-21.602 13.199-32.398 19.199-10.801-6-21.602-12-32.398-19.199-9.6016-6-18-12-26.398-18 0-9.6016-1.1992-20.398-1.1992-31.199 0-12 0-22.801 1.1992-33.602zm-88.801-15.598c-27.602-33.602-31.199-55.199-25.199-63.602 3.6016-4.8008 12-9.6016 28.801-9.6016 10.801 0 22.801 1.1992 39.602 6 9.6016 2.3984 19.199 6 30 9.6016-3.6016 19.199-6 38.398-7.1992 58.801-13.199 9.6016-25.199 19.199-36 28.801-12.004-8.4023-21.602-19.199-30.004-30zm63.602 62.398c-6-4.8008-12-9.6016-16.801-14.398 6-4.8008 10.801-9.6016 16.801-14.398v15.602 13.195zm-34.801 1.1992c10.801 9.6016 22.801 19.199 36 28.801 1.1992 20.398 3.6016 40.801 7.1992 60-10.801 3.6016-20.398 7.1992-30 9.6016-42 10.801-62.398 4.8008-68.398-3.6016-6-8.3984-1.1992-30 25.199-63.602 9.6016-9.5977 19.199-20.398 30-31.199z"/>
</svg>
