<?xml version="1.0" encoding="UTF-8"?>
<svg width="1200pt" height="1200pt" version="1.1" viewBox="0 0 1200 1200" xmlns="http://www.w3.org/2000/svg">
 <path d="m468.67 586.33m-229.17 413.5h-1.5m446.67-7.332c-1.5 38.832-23 63.332-51.832 74.832-10.168 4.332-23 7.168-34.5 7.168s-24.5-2.832-34.5-7.168c-28.832-11.5-50.5-36-51.832-74.832h-10.168c-31.668 0-53.332-17.332-62-40.332-4.332-8.668-5.832-17.332-5.832-27.332 0-8.668 1.5-18.668 5.832-27.332 2.832-7.168 5.832-13 11.5-18.668-23-5.832-37.5-20.168-44.668-38.832-2.832-8.668-4.332-17.332-4.332-27.332 0-8.668 1.5-17.332 4.332-27.332 7.168-15.832 18.668-28.832 36-36-38.832-31.668-76.332-69.168-105.17-112.33-36-51.832-60.5-113.83-60.5-191.67 0-87.832 36-168.5 95-226.17 57.668-57.668 138.33-93.668 226.17-93.668 37.5 0 73.5 5.832 106.67 17.332 28.832 11.5 56.168 26 80.668 43.168 2.832-2.832 7.168-5.832 10.168-7.168 5.832-2.832 11.5-2.832 17.332-1.5l21.668 8.668c5.832-4.332 10.168-7.168 15.832-10.168 4.332-2.832 10.168-5.832 15.832-8.668l4.332-23c1.5-5.832 4.332-10.168 8.668-14.332 4.332-2.832 10.168-4.332 15.832-4.332h43.168c5.832 0 10.168 1.5 14.332 4.332 5.832 4.332 8.668 8.668 8.668 14.332l4.332 23c5.832 2.832 11.5 5.832 17.332 8.668 4.332 2.832 10.168 5.832 14.332 10.168l23-8.668c5.832-1.5 11.5-1.5 17.332 1.5 4.332 1.5 8.668 5.832 11.5 10.168l21.668 37.5c2.832 5.832 4.332 11.5 2.832 15.832 0 5.832-2.832 11.5-7.168 14.332l-18.668 15.832v5.832c1.5 4.332 1.5 8.668 1.5 13 0 2.832 0 7.168-1.5 13v4.332l18.668 15.832c4.332 4.332 7.168 8.668 7.168 14.332 1.5 5.832 0 11.5-2.832 15.832l-21.668 37.5c-2.832 5.832-7.168 8.668-11.5 11.5-5.832 1.5-11.5 1.5-17.332 0l-23-8.668c-4.332 4.332-8.668 7.168-14.332 10.168-5.832 4.332-11.5 5.832-17.332 8.668l-4.332 23h1.5c-1.5 5.832-4.332 11.5-10.168 14.332-2.832 2.832-8.668 5.832-14.332 5.832h-20.168c-1.5 72-24.5 129.67-59 180-28.832 43.168-66.332 80.668-105.17 112.33 17.332 7.168 28.832 20.168 36 36 2.832 10.168 4.332 18.668 4.332 27.332 0 10.168-1.5 18.668-4.332 27.332-7.168 18.668-21.668 33.168-44.668 38.832 5.832 5.832 8.668 11.5 11.5 18.668 4.332 8.668 5.832 18.668 5.832 27.332 0 8.668-1.5 18.668-5.832 27.332-8.668 23-30.332 40.332-62 40.332zm-433.5-170c33.168 0 64.832 14.332 87.832 37.5 21.668 21.668 36 53.332 36 87.832s-14.332 64.832-36 87.832c-23 23-54.668 36-87.832 36-34.5 0-66.332-13-89.332-36-21.668-23-36-53.332-36-87.832s14.332-66.332 36-87.832c22.996-23 54.664-37.5 89.332-37.5zm70.5 54.832c-18.668-18.668-43.168-30.332-70.668-30.332-28.832 0-53.332 11.5-72 30.332-17.332 17.332-28.832 43.168-28.832 70.668 0 27.332 11.5 51.832 28.832 70.668 18.668 17.332 43.168 28.832 72 28.832 27.332 0 51.832-11.5 70.668-28.832 17.332-18.668 28.832-43.168 28.832-70.668s-11.5-53.332-28.832-70.668zm-141.17 83.5c-4.332-4.332-4.332-13 0-17.332 5.832-5.832 13-5.832 18.668 0l30.332 28.832 62-67.668c4.332-4.332 13-4.332 17.332 0 5.832 4.332 5.832 13 1.5 17.332l-70.668 77.832h-1.5c-4.332 4.332-13 4.332-17.332 0zm592.17-753.33c-23-17.332-49-30.332-76.332-40.332-30.332-10.168-63.332-17.332-98-17.332-82.168 0-155.67 33.168-208.83 86.5-53.332 53.332-86.5 128.17-86.5 208.83 0 72 21.668 129.67 54.668 177.17s76.332 87.832 119.5 122.5h242c43.168-34.5 86.5-74.832 119.5-122.5 30.332-46.168 51.832-99.332 54.668-165.67-5.832-1.5-10.168-2.832-14.332-5.832-4.332-2.832-7.168-8.668-8.668-14.332l-4.332-23c-5.832-2.832-11.5-4.332-15.832-8.668-5.832-2.832-10.168-5.832-15.832-10.168l-21.668 8.668c-5.832 1.5-11.5 1.5-17.332 0-4.332-2.832-8.668-5.832-11.5-11.5l-21.668-37.5c-2.832-4.332-4.332-10.168-2.832-15.832 0-5.832 2.832-10.168 7.168-14.332l18.668-15.832-1.5-4.332v-13-13l1.5-5.832-18.668-15.832c-4.332-2.832-7.168-8.668-8.668-14.332 0-4.332 1.5-10.168 4.332-15.832zm122.33-57.668-5.832 28.832v8.668l-7.168 1.5c-7.168 2.832-13 5.832-18.668 8.668-7.168 4.332-13 7.168-17.332 13l-5.832 4.332-7.168-2.832-27.332-10.168-21.668 37.5 23 18.668 5.832 4.332-1.5 7.168c-1.5 4.332-1.5 7.168-1.5 10.168-1.5 4.332-1.5 7.168-1.5 11.5 0 2.832 0 7.168 1.5 10.168 0 2.832 0 7.168 1.5 10.168l1.5 7.168-5.832 4.332-23 20.168 21.668 36 27.332-10.168 7.168-2.832 5.832 5.832c4.332 4.332 10.168 8.668 17.332 11.5 5.832 4.332 11.5 7.168 18.668 8.668l7.168 2.832 1.5 7.168 4.332 28.832h41.832l5.832-28.832 1.5-7.168 7.168-2.832c7.168-1.5 13-4.332 18.668-8.668 5.832-2.832 11.5-7.168 17.332-11.5l5.832-5.832 7.168 2.832 27.332 10.168 20.168-36-21.668-20.168-5.832-4.332 1.5-7.168c0-2.832 1.5-7.168 1.5-10.168v-10.168-11.5c0-2.832-1.5-5.832-1.5-10.168l-1.5-7.168 5.832-4.332 21.668-18.668-20.168-37.5-28.832 10.168-5.832 2.832-5.832-4.332c-5.832-5.832-11.5-8.668-17.332-13-5.832-2.832-11.5-5.832-18.668-8.668l-7.168-1.5-1.5-8.668-5.832-28.832zm154.17 193m-21.5 36m-89.336 51.836m-43.332 0m-89.332-51.836m0-177.16m111 13c20.168 0 38.832 8.668 53.332 23 13 13 21.668 31.668 21.668 53.332 0 20.168-8.668 38.832-21.668 53.332-14.332 13-33.168 21.668-53.332 21.668-21.668 0-40.332-8.668-53.332-21.668-14.332-14.332-23-33.168-23-53.332 0-21.668 8.668-40.332 23-53.332 12.996-14.336 31.664-23 53.332-23zm34.5 40.332c-8.668-8.668-21.668-14.332-34.5-14.332-14.332 0-27.332 5.832-36 14.332-8.668 8.668-14.332 21.668-14.332 36 0 13 5.832 26 14.332 34.5 8.668 10.168 21.668 15.832 36 15.832 13 0 26-5.832 34.5-15.832 10.168-8.668 15.832-21.668 15.832-34.5 0-14.5-5.668-27.332-15.832-36zm-564.67 191.5c0 7.168-5.832 13-13 13s-13-5.832-13-13v-14.332c0-4.332 1.5-8.668 1.5-13 1.5-7.168 7.168-11.5 14.332-11.5 7.168 1.5 11.5 7.168 11.5 14.332-1.5 4.332-1.5 7.168-1.5 11.5 0.16797 4.5 0.16797 8.832 0.16797 13zm14.332-77.668c-2.832 5.832-10.168 10.168-17.332 7.168-5.832-2.832-8.668-10.168-7.168-17.332 10.168-23 23-44.668 38.832-64.832 15.832-18.668 34.5-36 56.168-49 5.832-4.332 14.332-1.5 17.332 4.332 4.332 5.832 2.832 13-2.832 17.332-20.168 11.5-36 27.332-50.5 44.668-14.332 17.332-25.832 36-34.5 57.664zm197.5-17.332c14.332 0 28.832 7.168 37.5 15.832 10.168 10.168 15.832 23 15.832 38.832 0 14.332-5.832 27.332-15.832 37.5-8.668 10.168-23 15.832-37.5 15.832-14.332 0-28.832-5.832-37.5-15.832-10.168-10.168-15.832-23-15.832-37.5 0-15.832 5.832-28.832 15.832-38.832 8.668-8.6641 23-15.832 37.5-15.832zm20.168 34.5c-5.832-5.832-13-8.668-20.168-8.668s-14.332 2.832-20.168 8.668c-4.332 4.332-8.668 11.5-8.668 20.168 0 7.168 4.332 14.332 8.668 20.168 5.832 4.332 13 7.168 20.168 7.168s14.332-2.832 20.168-7.168c4.332-5.832 8.668-13 8.668-20.168 0-8.5-4.3359-15.836-8.668-20.168zm-63.5 158.5h85c28.832-46.168 41.832-99.332 33.168-152.67-7.168-46.168-31.668-90.832-74.832-128.17-43.168 37.5-67.668 82.168-74.832 128.17-8.8359 53.336 4.1641 106.67 31.496 152.67zm105.17 15.832v50.5c0 7.168-5.832 13-13 13h-2.832c2.832 13 1.5 26-2.832 38.832-5.832 15.832-17.332 30.332-36 43.168l-7.1719 5.8359-7.168-5.832c-18.668-13-30.332-27.332-36-43.168-4.332-13-5.832-26-2.832-38.832h-2.832c-7.168 0-13-5.832-13-13v-50.5l-1.5-2.832-47.5 31.668c-5.832 4.332-14.332 2.832-18.668-2.832-7.168-11.5-14.332-23-18.668-36-5.832-14.332-7.168-30.332-4.332-46.168 4.332-15.832 13-30.332 28.832-41.832 7.168-4.332 14.332-8.668 23-11.5-2.832-21.668-2.832-41.832 1.5-62 8.668-54.668 37.5-109.5 90.832-152.67l8.668-5.832 7.168 5.832c54.668 43.168 83.5 98 92.168 152.67 4.332 20.168 4.332 40.332 1.5 62 8.668 2.832 15.832 7.168 23 11.5 15.832 11.5 24.5 26 28.832 41.832 2.832 15.832 1.5 31.668-4.332 46.168-4.332 13-11.5 24.5-18.668 36-4.332 5.832-13 7.168-18.668 2.832l-47.5-31.668zm-41.668 63.5h-41.832c-1.5 10.168-1.5 20.168 2.832 30.332 2.832 8.668 8.668 17.332 18.668 26 10.168-8.668 15.832-17.332 18.668-26 4.4961-10.164 4.4961-20.332 1.6641-30.332zm17.168-54.832h-74.832v28.832h74.832zm-133.84-92.168c-4.332 1.5-8.668 4.332-11.5 7.168-11.5 7.168-17.332 15.832-18.668 26-2.832 10.168-1.5 21.668 2.832 33.168 1.5 5.832 4.332 13 8.668 18.668l38.832-26c-8.6641-18.668-15.996-38.836-20.164-59.004zm172.84 59 38.832 26c2.832-5.832 7.168-13 8.668-18.668 4.332-11.5 5.832-23 2.832-33.168-1.5-10.168-7.168-18.668-18.668-26-2.832-2.832-7.168-5.832-11.5-7.168-4.332 20.172-11.5 40.34-20.164 59.004zm-138.34 456.67c1.5 27.332 15.832 44.668 36 51.832 8.668 4.332 17.332 5.832 26 5.832s17.332-1.5 26-5.832c18.668-7.168 34.5-24.5 36-51.832zm158.5-135.33h33.168c20.168 0 33.168-11.5 38.832-26 2.832-5.832 4.332-11.5 4.332-18.668 0-5.832-1.5-11.5-4.332-17.332-5.832-14.332-18.668-26-38.832-26h-259.33c-20.168 0-33.168 11.5-38.832 26-2.832 5.832-4.332 11.5-4.332 17.332 0 7.168 1.5 13 4.332 18.668 5.832 14.332 18.668 26 38.832 26zm-194.5 24.5c-20.168 0-33.168 11.5-37.5 24.5-2.832 5.832-4.332 13-4.332 18.668 0 5.832 1.5 13 2.832 18.668 5.832 14.332 20.168 24.5 40.332 24.5h193c20.168 0 34.5-10.168 38.832-24.5 2.832-5.832 4.332-13 4.332-18.668 0-5.832-1.5-13-4.332-18.668-4.332-13-17.332-24.5-37.5-24.5z"/>
</svg>
